<svg version="1.1" id="Layer_1" xmlns="http://www.w3.org/2000/svg" xmlns:xlink="http://www.w3.org/1999/xlink" x="0px" y="0px"
	 width="100%" viewBox="0 0 225 150" enable-background="new 0 0 225 150" xml:space="preserve">
<path fill="#F77F00" opacity="1.000000" stroke="none" 
	d="
M76.000000,151.000000 
	C51.036499,151.000000 26.072998,151.000000 1.054748,151.000000 
	C1.054748,101.109550 1.054748,51.219021 1.054748,1.000000 
	C25.686590,1.000000 50.374638,1.000000 75.531342,1.468657 
	C76.000000,51.624878 76.000000,101.312439 76.000000,151.000000 
z"/>
<path fill="#FFFFFF" opacity="1.000000" stroke="none" 
	d="
M76.468658,151.000000 
	C76.000000,101.312439 76.000000,51.624878 76.000000,1.468657 
	C100.687561,1.000000 125.375122,1.000000 150.531342,1.468657 
	C151.000000,51.624878 151.000000,101.312439 151.000000,151.000000 
	C126.312439,151.000000 101.624878,151.000000 76.468658,151.000000 
z"/>
<path fill="#009E60" opacity="1.000000" stroke="none" 
	d="
M151.468658,151.000000 
	C151.000000,101.312439 151.000000,51.624878 151.000000,1.468657 
	C175.963501,1.000000 200.927002,1.000000 225.945251,1.000000 
	C225.945251,50.890453 225.945251,100.780983 225.945251,151.000000 
	C201.313416,151.000000 176.625366,151.000000 151.468658,151.000000 
z"/>
</svg>